/* XPM */
static char * close_xpm[] = {
"16 22 6 1",
" 	c None",
".	c #354874",
"+	c #ECF8FC",
"@	c #EBF8FC",
"#	c #F4FBFD",
"$	c #FFFFFF",
"                ",
"                ",
"                ",
"                ",
"............... ",
"............... ",
"............... ",
"..+@@@#........ ",
"............... ",
".$$$$$$$$$$$$.. ",
".$$$$$$$$$$$$.. ",
".$$$.......$$.. ",
".$$$.$$$$$.$$.. ",
".$$$.$$$$$.$$.. ",
".$$$.$$$$$.$$.. ",
".$$$.$$$$$.$$.. ",
"............... ",
"............... ",
"............... ",
"                ",
"                ",
"                "};
